# xmcd
#
# Track frame offsets: 
#        180
#        23480
#        50253
#        81505
#        115899
#        145985
#        166970
#        198225
#
# Disc length: 3119 seconds
#
# Revision: 0
# Processed by: cddbd v1.5.2PL0 Copyright (c) Steve Scherf et al.
# Submitted via: ExactAudioCopy v1.0b3
#
DISCID=630c2d08
DTITLE=Various Artist - Power Tracks Vol. 1
DYEAR=1900
DGENRE=
TTITLE0=Nakatomi - Children Of The Night (Xtd Radio Mix)
TTITLE1=Bass Symphony - Deep Side (Funky Garden Rmx)
TTITLE2=Whigfield - Sexy Eyes (David's Epic Experience)
TTITLE3=Deep Zone - It's Gonna B Alright (DJ Guan's Club Mix)
TTITLE4=DJ Dado - X-Files (DJ Dado Paranormal Activity Mix)
TTITLE5=Critical Mass - Believe In The Future (Xtd Radio Version)
TTITLE6=Kristine W. - One More Try (Rollo And Sister Bliss Club Mix)
TTITLE7=Sonz Of Soul - Race Of Survival (Gems 4 Jem Positive Mix)
EXTD=
EXTT0=
EXTT1=
EXTT2=
EXTT3=
EXTT4=
EXTT5=
EXTT6=
EXTT7=
PLAYORDER=
